<svg width="30" height="30" viewBox="0 0 30 30" fill="none" xmlns="http://www.w3.org/2000/svg">
<path d="M11.5625 16.25C11.5625 17.6313 10.4438 18.75 9.0625 18.75C7.68125 18.75 6.5625 17.6313 6.5625 16.25C6.5625 14.8687 7.68125 13.75 9.0625 13.75C10.4438 13.75 11.5625 14.8687 11.5625 16.25Z" fill="#3565FF"/>
<path fill-rule="evenodd" clip-rule="evenodd" d="M9.0625 17.5C9.39402 17.5 9.71196 17.3683 9.94638 17.1339C10.1808 16.8995 10.3125 16.5815 10.3125 16.25C10.3125 15.9185 10.1808 15.6005 9.94638 15.3661C9.71196 15.1317 9.39402 15 9.0625 15C8.73098 15 8.41304 15.1317 8.17862 15.3661C7.9442 15.6005 7.8125 15.9185 7.8125 16.25C7.8125 16.5815 7.9442 16.8995 8.17862 17.1339C8.41304 17.3683 8.73098 17.5 9.0625 17.5ZM9.0625 18.75C10.4438 18.75 11.5625 17.6313 11.5625 16.25C11.5625 14.8687 10.4438 13.75 9.0625 13.75C7.68125 13.75 6.5625 14.8687 6.5625 16.25C6.5625 17.6313 7.68125 18.75 9.0625 18.75Z" fill="#3565FF"/>
<path d="M3.75 22.8406C3.75 20.9519 7.28938 20 9.0625 20C10.8356 20 14.375 20.9519 14.375 22.8406V26.25H3.75V22.8406Z" fill="#3565FF"/>
<path fill-rule="evenodd" clip-rule="evenodd" d="M5.20875 22.4894C5.01125 22.6844 5 22.7963 5 22.8413V25H13.125V22.8406C13.125 22.7969 13.1138 22.6844 12.9163 22.4894C12.7075 22.2838 12.3631 22.0631 11.8912 21.8613C10.9412 21.4544 9.78125 21.25 9.0625 21.25C8.34375 21.25 7.18313 21.4544 6.23375 21.8613C5.76187 22.0631 5.4175 22.2838 5.20875 22.4894V22.4894ZM9.0625 20C7.28938 20 3.75 20.9519 3.75 22.8406V26.25H14.375V22.8406C14.375 20.9519 10.8356 20 9.0625 20Z" fill="#3565FF"/>
<path d="M23.4375 16.25C23.4375 17.6313 22.3188 18.75 20.9375 18.75C19.5562 18.75 18.4375 17.6313 18.4375 16.25C18.4375 14.8687 19.5562 13.75 20.9375 13.75C22.3188 13.75 23.4375 14.8687 23.4375 16.25Z" fill="#3565FF"/>
<path fill-rule="evenodd" clip-rule="evenodd" d="M20.9375 17.5C21.269 17.5 21.587 17.3683 21.8214 17.1339C22.0558 16.8995 22.1875 16.5815 22.1875 16.25C22.1875 15.9185 22.0558 15.6005 21.8214 15.3661C21.587 15.1317 21.269 15 20.9375 15C20.606 15 20.288 15.1317 20.0536 15.3661C19.8192 15.6005 19.6875 15.9185 19.6875 16.25C19.6875 16.5815 19.8192 16.8995 20.0536 17.1339C20.288 17.3683 20.606 17.5 20.9375 17.5ZM20.9375 18.75C22.3188 18.75 23.4375 17.6313 23.4375 16.25C23.4375 14.8687 22.3188 13.75 20.9375 13.75C19.5562 13.75 18.4375 14.8687 18.4375 16.25C18.4375 17.6313 19.5562 18.75 20.9375 18.75Z" fill="#3565FF"/>
<path d="M17.5 15C17.5 16.3813 16.3813 17.5 15 17.5C13.6187 17.5 12.5 16.3813 12.5 15C12.5 13.6187 13.6187 12.5 15 12.5C16.3813 12.5 17.5 13.6187 17.5 15Z" fill="#3565FF"/>
<path fill-rule="evenodd" clip-rule="evenodd" d="M15 16.25C15.3315 16.25 15.6495 16.1183 15.8839 15.8839C16.1183 15.6495 16.25 15.3315 16.25 15C16.25 14.6685 16.1183 14.3505 15.8839 14.1161C15.6495 13.8817 15.3315 13.75 15 13.75C14.6685 13.75 14.3505 13.8817 14.1161 14.1161C13.8817 14.3505 13.75 14.6685 13.75 15C13.75 15.3315 13.8817 15.6495 14.1161 15.8839C14.3505 16.1183 14.6685 16.25 15 16.25V16.25ZM15 17.5C16.3813 17.5 17.5 16.3813 17.5 15C17.5 13.6187 16.3813 12.5 15 12.5C13.6187 12.5 12.5 13.6187 12.5 15C12.5 16.3813 13.6187 17.5 15 17.5Z" fill="#3565FF"/>
<path d="M14.375 8.02063C14.375 7.21951 14.0568 6.4512 13.4903 5.88472C12.9238 5.31824 12.1555 5 11.3544 5H9.37375C8.55421 4.99868 7.76697 5.31949 7.18178 5.89325C6.59659 6.46701 6.26033 7.24777 6.24549 8.06718C6.23064 8.88658 6.53842 9.679 7.10244 10.2736C7.66647 10.8682 8.44157 11.2173 9.26062 11.2456L9.375 11.25V12.5C9.375 12.5 14.375 11.7706 14.375 8.02063ZM16.25 7.0225C16.25 6.15458 16.5948 5.32221 17.2085 4.70849C17.8222 4.09478 18.6546 3.75 19.5225 3.75H23.125C23.9538 3.75 24.7487 4.07924 25.3347 4.66529C25.9208 5.25134 26.25 6.0462 26.25 6.875C26.25 7.7038 25.9208 8.49866 25.3347 9.08471C24.7487 9.67076 23.9538 10 23.125 10H21.875V11.875C21.875 11.875 16.25 11.085 16.25 7.0225ZM15.625 22.8406C15.625 20.9519 19.1644 20 20.9375 20C22.7106 20 26.25 20.9519 26.25 22.8406V26.25H15.625V22.8406Z" fill="#3565FF"/>
<path fill-rule="evenodd" clip-rule="evenodd" d="M17.0837 22.4894C16.8862 22.6844 16.875 22.7963 16.875 22.8413V25H25V22.8406C25 22.7969 24.9887 22.6844 24.7912 22.4894C24.5825 22.2838 24.2381 22.0631 23.7662 21.8613C22.8162 21.4544 21.6562 21.25 20.9375 21.25C20.2187 21.25 19.0581 21.4544 18.1087 21.8613C17.6369 22.0631 17.2925 22.2838 17.0837 22.4894V22.4894ZM20.9375 20C19.1644 20 15.625 20.9519 15.625 22.8406V26.25H26.25V22.8406C26.25 20.9519 22.7106 20 20.9375 20ZM15 21.875V21.5906C15 20.5425 13.8456 19.7825 12.4969 19.3138C13.2796 18.9439 14.1343 18.7514 15 18.75C15.8657 18.7514 16.7204 18.9439 17.5031 19.3138C16.155 19.7825 15 20.5425 15 21.5906V21.875Z" fill="#3565FF"/>
<path fill-rule="evenodd" clip-rule="evenodd" d="M15 21.875V21.5906C15 21.0325 15.3275 20.5556 15.8375 20.1613C15.8667 20.1389 15.8963 20.117 15.9262 20.0956C16.3612 19.7794 16.9137 19.5188 17.5031 19.3144C16.9177 19.0384 16.2911 18.86 15.6481 18.7863C15.2176 18.7379 14.783 18.7379 14.3525 18.7863C13.7093 18.8597 13.0825 19.0379 12.4969 19.3138C13.0862 19.5188 13.6387 19.7794 14.0744 20.095C14.1044 20.1169 14.1331 20.1388 14.1619 20.1613C14.6725 20.555 15 21.0325 15 21.5906V21.875Z" fill="#3565FF"/>
</svg>
