<svg width="30" height="30" viewBox="0 0 30 30" fill="none" xmlns="http://www.w3.org/2000/svg">
<path d="M25 5H5C4.33696 5 3.70107 5.26339 3.23223 5.73223C2.76339 6.20107 2.5 6.83696 2.5 7.5V22.5C2.5 23.163 2.76339 23.7989 3.23223 24.2678C3.70107 24.7366 4.33696 25 5 25H25C25.663 25 26.2989 24.7366 26.7678 24.2678C27.2366 23.7989 27.5 23.163 27.5 22.5V7.5C27.5 6.83696 27.2366 6.20107 26.7678 5.73223C26.2989 5.26339 25.663 5 25 5V5ZM5 22.5V7.5H25V22.5H5Z" fill="#3565FF"/>
<path d="M7.5 10H10V20H7.5V10ZM11.25 10H12.5V20H11.25V10ZM21.25 10H22.5V20H21.25V10ZM16.25 10H20V20H16.25V10ZM13.75 10H15V20H13.75V10Z" fill="#3565FF"/>
</svg>
