<svg width="32" height="30" viewBox="0 0 32 30" fill="none" xmlns="http://www.w3.org/2000/svg">
<path d="M29.3333 1.875H2.66667C1.19444 1.875 0 3.13477 0 4.6875V25.3125C0 26.8652 1.19444 28.125 2.66667 28.125H29.3333C30.8056 28.125 32 26.8652 32 25.3125V4.6875C32 3.13477 30.8056 1.875 29.3333 1.875ZM29.3333 25.3125H16.8444C16.8944 25.0488 16.8889 25.5234 16.8889 24C16.8889 22.1367 15.2167 20.625 13.1556 20.625C12.5556 20.625 12.1167 21.0938 10.6667 21.0938C9.17222 21.0938 8.81111 20.625 8.17778 20.625C6.11667 20.625 4.44444 22.1367 4.44444 24C4.44444 25.5234 4.43333 25.0488 4.48889 25.3125H2.66667V8.4375H29.3333V25.3125ZM20 20.625H26.2222C26.4667 20.625 26.6667 20.4141 26.6667 20.1562V19.2188C26.6667 18.9609 26.4667 18.75 26.2222 18.75H20C19.7556 18.75 19.5556 18.9609 19.5556 19.2188V20.1562C19.5556 20.4141 19.7556 20.625 20 20.625ZM20 16.875H26.2222C26.4667 16.875 26.6667 16.6641 26.6667 16.4062V15.4688C26.6667 15.2109 26.4667 15 26.2222 15H20C19.7556 15 19.5556 15.2109 19.5556 15.4688V16.4062C19.5556 16.6641 19.7556 16.875 20 16.875ZM20 13.125H26.2222C26.4667 13.125 26.6667 12.9141 26.6667 12.6562V11.7188C26.6667 11.4609 26.4667 11.25 26.2222 11.25H20C19.7556 11.25 19.5556 11.4609 19.5556 11.7188V12.6562C19.5556 12.9141 19.7556 13.125 20 13.125ZM10.6667 18.75C12.6278 18.75 14.2222 17.0684 14.2222 15C14.2222 12.9316 12.6278 11.25 10.6667 11.25C8.70556 11.25 7.11111 12.9316 7.11111 15C7.11111 17.0684 8.70556 18.75 10.6667 18.75Z" fill="#3565FF"/>
</svg>
