<svg width="30" height="30" viewBox="0 0 30 30" fill="none" xmlns="http://www.w3.org/2000/svg">
<path d="M6.25 7.8125C6.25 7.06658 6.54632 6.35121 7.07376 5.82376C7.60121 5.29632 8.31658 5 9.0625 5H19.6875C20.4334 5 21.1488 5.29632 21.6762 5.82376C22.2037 6.35121 22.5 7.06658 22.5 7.8125V17.5H26.875V21.5625C26.875 22.6399 26.447 23.6733 25.6851 24.4351C24.9233 25.197 23.8899 25.625 22.8125 25.625H16.25V20.625H17.8125C18.0611 20.625 18.2996 20.5262 18.4754 20.3504C18.6512 20.1746 18.75 19.9361 18.75 19.6875C18.75 19.4389 18.6512 19.2004 18.4754 19.0246C18.2996 18.8488 18.0611 18.75 17.8125 18.75H15.625C15.3342 18.3616 14.9568 18.0464 14.5228 17.8294C14.0888 17.6124 13.6102 17.4996 13.125 17.5H6.25V7.8125ZM22.5 23.75H22.8125C23.3927 23.75 23.9491 23.5195 24.3593 23.1093C24.7695 22.6991 25 22.1427 25 21.5625V19.375H22.5V23.75ZM10.9375 10C10.6889 10 10.4504 10.0988 10.2746 10.2746C10.0988 10.4504 10 10.6889 10 10.9375C10 11.1861 10.0988 11.4246 10.2746 11.6004C10.4504 11.7762 10.6889 11.875 10.9375 11.875H17.8125C18.0611 11.875 18.2996 11.7762 18.4754 11.6004C18.6512 11.4246 18.75 11.1861 18.75 10.9375C18.75 10.6889 18.6512 10.4504 18.4754 10.2746C18.2996 10.0988 18.0611 10 17.8125 10H10.9375ZM10.9375 14.375C10.6889 14.375 10.4504 14.4738 10.2746 14.6496C10.0988 14.8254 10 15.0639 10 15.3125C10 15.5611 10.0988 15.7996 10.2746 15.9754C10.4504 16.1512 10.6889 16.25 10.9375 16.25H17.8125C18.0611 16.25 18.2996 16.1512 18.4754 15.9754C18.6512 15.7996 18.75 15.5611 18.75 15.3125C18.75 15.0639 18.6512 14.8254 18.4754 14.6496C18.2996 14.4738 18.0611 14.375 17.8125 14.375H10.9375ZM1.25 20.625C1.25 20.1277 1.44754 19.6508 1.79917 19.2992C2.15081 18.9475 2.62772 18.75 3.125 18.75H13.125C13.6223 18.75 14.0992 18.9475 14.4508 19.2992C14.8025 19.6508 15 20.1277 15 20.625V25.625C15 26.1223 14.8025 26.5992 14.4508 26.9508C14.0992 27.3025 13.6223 27.5 13.125 27.5H3.125C2.62772 27.5 2.15081 27.3025 1.79917 26.9508C1.44754 26.5992 1.25 26.1223 1.25 25.625V20.625ZM13.75 21.25C13.4185 21.25 13.1005 21.1183 12.8661 20.8839C12.6317 20.6495 12.5 20.3315 12.5 20H11.25C11.25 20.663 11.5134 21.2989 11.9822 21.7678C12.4511 22.2366 13.087 22.5 13.75 22.5V21.25ZM13.75 23.75C13.087 23.75 12.4511 24.0134 11.9822 24.4822C11.5134 24.9511 11.25 25.587 11.25 26.25H12.5C12.5 25.9185 12.6317 25.6005 12.8661 25.3661C13.1005 25.1317 13.4185 25 13.75 25V23.75ZM3.75 20C3.75 20.3315 3.6183 20.6495 3.38388 20.8839C3.14946 21.1183 2.83152 21.25 2.5 21.25V22.5C3.16304 22.5 3.79893 22.2366 4.26777 21.7678C4.73661 21.2989 5 20.663 5 20H3.75ZM5 26.25C5 25.587 4.73661 24.9511 4.26777 24.4822C3.79893 24.0134 3.16304 23.75 2.5 23.75V25C2.83152 25 3.14946 25.1317 3.38388 25.3661C3.6183 25.6005 3.75 25.9185 3.75 26.25H5ZM10.3125 23.125C10.3125 22.5448 10.082 21.9884 9.6718 21.5782C9.26156 21.168 8.70516 20.9375 8.125 20.9375C7.54484 20.9375 6.98844 21.168 6.5782 21.5782C6.16797 21.9884 5.9375 22.5448 5.9375 23.125C5.9375 23.7052 6.16797 24.2616 6.5782 24.6718C6.98844 25.082 7.54484 25.3125 8.125 25.3125C8.70516 25.3125 9.26156 25.082 9.6718 24.6718C10.082 24.2616 10.3125 23.7052 10.3125 23.125V23.125Z" fill="#3565FF"/>
</svg>
