<svg width="30" height="30" viewBox="0 0 30 30" fill="none" xmlns="http://www.w3.org/2000/svg">
<path d="M9 3C8.20435 3 7.44129 3.31607 6.87868 3.87868C6.31607 4.44129 6 5.20435 6 6V13.575C6.243 13.5255 6.4935 13.5 6.75 13.5H7.5V6C7.5 5.60218 7.65804 5.22064 7.93934 4.93934C8.22064 4.65804 8.60218 4.5 9 4.5H15V9.75C15 10.3467 15.2371 10.919 15.659 11.341C16.081 11.7629 16.6533 12 17.25 12H22.5V24C22.5 24.3978 22.342 24.7794 22.0607 25.0607C21.7794 25.342 21.3978 25.5 21 25.5H16.5V26.25C16.5 26.5065 16.4745 26.757 16.425 27H21C21.7956 27 22.5587 26.6839 23.1213 26.1213C23.6839 25.5587 24 24.7956 24 24V11.121C23.9995 10.5245 23.7621 9.95255 23.34 9.531L17.469 3.6585C17.0472 3.23697 16.4753 3.00013 15.879 3H9ZM22.1895 10.5H17.25C17.0511 10.5 16.8603 10.421 16.7197 10.2803C16.579 10.1397 16.5 9.94891 16.5 9.75V4.8105L22.1895 10.5ZM4.5 17.25V18H3.75C3.15326 18 2.58097 18.2371 2.15901 18.659C1.73705 19.081 1.5 19.6533 1.5 20.25V26.25C1.5 26.8467 1.73705 27.419 2.15901 27.841C2.58097 28.2629 3.15326 28.5 3.75 28.5H12.75C13.3467 28.5 13.919 28.2629 14.341 27.841C14.7629 27.419 15 26.8467 15 26.25V20.25C15 19.6533 14.7629 19.081 14.341 18.659C13.919 18.2371 13.3467 18 12.75 18H12V17.25C12 16.6533 11.7629 16.081 11.341 15.659C10.919 15.2371 10.3467 15 9.75 15H6.75C6.15326 15 5.58097 15.2371 5.15901 15.659C4.73705 16.081 4.5 16.6533 4.5 17.25ZM6.75 16.5H9.75C9.94891 16.5 10.1397 16.579 10.2803 16.7197C10.421 16.8603 10.5 17.0511 10.5 17.25V18H6V17.25C6 17.0511 6.07902 16.8603 6.21967 16.7197C6.36032 16.579 6.55109 16.5 6.75 16.5V16.5Z" fill="#3565FF"/>
</svg>
