<svg width="30" height="30" viewBox="0 0 30 30" fill="none" xmlns="http://www.w3.org/2000/svg">
<path d="M16.7613 3.14125C15.6317 2.6833 14.3683 2.6833 13.2387 3.14125L10.5013 4.25125L22.4913 8.91375L26.7088 7.285C26.5359 7.14153 26.342 7.02558 26.1337 6.94125L16.7613 3.14125V3.14125ZM27.5 8.98875L15.9375 13.4563V16.3313C16.6966 15.516 17.6156 14.8659 18.6372 14.4218C19.6588 13.9777 20.761 13.749 21.875 13.75C24.0587 13.75 26.04 14.6113 27.5 16.0125V8.9875V8.98875ZM14.0625 13.4563V19.6375C13.8546 20.3656 13.7494 21.1191 13.75 21.8763C13.75 22.6525 13.8587 23.4038 14.0625 24.1138V27.11C13.7809 27.0525 13.5051 26.9693 13.2387 26.8613L3.86625 23.0613C3.46254 22.8977 3.11684 22.6174 2.87343 22.2562C2.63003 21.895 2.5 21.4693 2.5 21.0338V8.99L14.0625 13.4575V13.4563ZM3.29125 7.285L15 11.8088L19.8962 9.91625L7.9675 5.27875L3.86625 6.94125C3.65375 7.0275 3.46125 7.14375 3.29125 7.285V7.285ZM28.75 21.875C28.75 20.0516 28.0257 18.303 26.7364 17.0136C25.447 15.7243 23.6984 15 21.875 15C20.0516 15 18.303 15.7243 17.0136 17.0136C15.7243 18.303 15 20.0516 15 21.875C15 23.6984 15.7243 25.4471 17.0136 26.7364C18.303 28.0257 20.0516 28.75 21.875 28.75C23.6984 28.75 25.447 28.0257 26.7364 26.7364C28.0257 25.4471 28.75 23.6984 28.75 21.875ZM21.9275 17.5025L22.035 17.5213L22.1137 17.5463L22.1988 17.59L22.2575 17.63L25.4425 20.8075L25.5137 20.895C25.5961 21.0153 25.6338 21.1606 25.6203 21.3058C25.6068 21.4509 25.543 21.5868 25.4399 21.6899C25.3368 21.793 25.2009 21.8568 25.0558 21.8703C24.9106 21.8838 24.7653 21.8461 24.645 21.7638L24.5575 21.6925L22.5 19.6338V26.2513L22.49 26.3638C22.4672 26.4886 22.4069 26.6036 22.3171 26.6934C22.2274 26.7831 22.1124 26.8434 21.9875 26.8663L21.875 26.8763L21.7625 26.8663C21.6376 26.8434 21.5226 26.7831 21.4329 26.6934C21.3431 26.6036 21.2828 26.4886 21.26 26.3638L21.25 26.25L21.2488 19.635L19.1925 21.6925L19.105 21.7638C19.0006 21.8358 18.8768 21.8744 18.75 21.8744C18.6232 21.8744 18.4994 21.8358 18.395 21.7638L18.3075 21.6925L18.2362 21.605C18.1642 21.5006 18.1256 21.3768 18.1256 21.25C18.1256 21.1232 18.1642 20.9994 18.2362 20.895L18.3075 20.8075L21.4488 17.6675L21.5188 17.6113L21.6112 17.5588L21.715 17.5213L21.79 17.5063L21.86 17.5L21.9275 17.5025V17.5025Z" fill="#3565FF"/>
</svg>
