<svg width="30" height="30" viewBox="0 0 30 30" fill="none" xmlns="http://www.w3.org/2000/svg">
<path d="M13.125 26.25C14.1605 26.25 15 25.4105 15 24.375C15 23.3395 14.1605 22.5 13.125 22.5C12.0895 22.5 11.25 23.3395 11.25 24.375C11.25 25.4105 12.0895 26.25 13.125 26.25Z" fill="#3565FF"/>
<path d="M21.875 26.25C22.9105 26.25 23.75 25.4105 23.75 24.375C23.75 23.3395 22.9105 22.5 21.875 22.5C20.8395 22.5 20 23.3395 20 24.375C20 25.4105 20.8395 26.25 21.875 26.25Z" fill="#3565FF"/>
<path d="M26.25 8.75001H9.1675L7.725 5.28751C7.53564 4.83143 7.21514 4.44185 6.80412 4.16813C6.3931 3.89442 5.91007 3.74889 5.41625 3.75001H2.5V6.25001H5.4175L11.3462 20.4813C11.54 20.9463 11.9963 21.25 12.5 21.25H22.5C23.0212 21.25 23.4875 20.9263 23.6713 20.44L27.4213 10.44C27.4915 10.2507 27.515 10.0473 27.4898 9.84704C27.4645 9.64674 27.3913 9.45551 27.2763 9.28959C27.1613 9.12367 27.008 8.98796 26.8293 8.89402C26.6506 8.80008 26.4519 8.75068 26.25 8.75001V8.75001ZM21.25 16.25H18.75V18.75H16.25V16.25H13.75V13.75H16.25V11.25H18.75V13.75H21.25V16.25Z" fill="#3565FF"/>
</svg>
